# xmcd
#
# Track frame offsets:
#	150
#	17437
#	33047
#	48623
#	62508
#	77344
#	91514
#	103797
#	118616
#	134738
#	148507
#	164642
#	180446
#	196596
#	209237
#	222460
#	239733
#	255091
#	268575
#	284550
#	300203
#	314794
#	332137
#	344780
#
# Disc length: 4740 seconds
#
# Revision: 1
# Processed by: cddbd v1.5.1PL0 Copyright (c) Steve Scherf et al.
# Submitted via: audiograbber 1.83.01
#
DISCID=64128218
DTITLE=Los Tigres del Norte - Exitos
DYEAR=2004
DGENRE=Ethnic
TTITLE0=Mix
TTITLE1=La banda del carro rojo
TTITLE2=La puerta negra
TTITLE3=El niño y la boda
TTITLE4=La camioneta gris
TTITLE5=Contrabando y traicion
TTITLE6=Ni parientes somos
TTITLE7=Pedro y Pablo
TTITLE8=Si me vas a dejar
TTITLE9=Mi sangre prisionera
TTITLE10=No puedo enamorame mas
TTITLE11=Cuestion olvidada
TTITLE12=Pacas de a kilo
TTITLE13=La tumba falsa
TTITLE14=El ejemplo
TTITLE15=Golpes al corazon
TTITLE16=Quien
TTITLE17=Pista 
TTITLE18=Jefe de jefes
TTITLE19=El personaje del diablo
TTITLE20=La furia del rojo
TTITLE21=Los tres amigos
TTITLE22=Que de raro tiene
TTITLE23=¿En que falle?
EXTD=
EXTT0=
EXTT1=
EXTT2=
EXTT3=
EXTT4=
EXTT5=
EXTT6=
EXTT7=
EXTT8=
EXTT9=
EXTT10=
EXTT11=
EXTT12=
EXTT13=
EXTT14=
EXTT15=
EXTT16=
EXTT17=
EXTT18=
EXTT19=
EXTT20=
EXTT21=
EXTT22=
EXTT23=
PLAYORDER=
